<svg width="100%" height="auto" viewBox="0 0 850 360" preserveAspectRatio="xMidYMid meet" fill="none" xmlns="http://www.w3.org/2000/svg">
  <defs>
    <linearGradient id="gB" x1="0%" y1="0%" x2="100%" y2="100%"><stop offset="0%" stop-color="#247bff"/><stop offset="100%" stop-color="#00f0ff"/></linearGradient>
    <linearGradient id="gBg" x1="0%" y1="0%" x2="100%" y2="100%"><stop offset="0%" stop-color="#070b16"/><stop offset="100%" stop-color="#0f172a"/></linearGradient>
  </defs>
  <style>
    .font-mono { font-family: 'Courier New', Courier, monospace; }
    .font-sans { font-family: -apple-system, BlinkMacSystemFont, 'Segoe UI', Roboto, Helvetica, Arial, sans-serif; }
  </style>
  <rect x="2" y="2" width="846" height="356" rx="16" fill="url(#gBg)" stroke="url(#gB)" stroke-width="2"/>
  <g transform="translate(35, 22)">
    <text class="font-mono" font-size="12" font-weight="bold" fill="#00f0ff" letter-spacing="1.5" x="0" y="14">💻 TECHNICAL SKILLS &amp; TOOLKIT</text>
    
    <g transform="translate(0, 32)">
      <!-- ROW 1 -->
      <!-- Card 1: Programming -->
      <g transform="translate(0, 0)">
        <rect width="380" height="64" rx="10" fill="#1e293b" fill-opacity="0.8" stroke="#247bff" stroke-width="1.5"/>
        <text x="14" y="22" class="font-sans" font-size="11.5" font-weight="700" fill="#00f0ff">🐍 Programming</text>
        <g transform="translate(14, 34)">
          <rect width="60" height="20" rx="10" fill="#3776AB"/><text x="30" y="13.5" class="font-sans" font-size="9.5" font-weight="bold" fill="#fff" text-anchor="middle">Python</text>
        </g>
      </g>
      <!-- Card 2: Data Analysis -->
      <g transform="translate(400, 0)">
        <rect width="380" height="64" rx="10" fill="#1e293b" fill-opacity="0.8" stroke="#ff007f" stroke-width="1.5"/>
        <text x="14" y="22" class="font-sans" font-size="11.5" font-weight="700" fill="#ff007f">🐼 Data Analysis</text>
        <g transform="translate(14, 34)">
          <rect width="60" height="20" rx="10" fill="#150458"/><text x="44" y="13.5" class="font-sans" font-size="9.5" font-weight="bold" fill="#fff" text-anchor="middle">Pandas</text>
          <rect x="66" width="55" height="20" rx="10" fill="#013243"/><text x="93.5" y="13.5" class="font-sans" font-size="9.5" font-weight="bold" fill="#fff" text-anchor="middle">NumPy</text>
          <rect x="127" width="165" height="20" rx="10" fill="#334155" stroke="#ff007f"/><text x="209.5" y="13.5" class="font-sans" font-size="9.5" font-weight="bold" fill="#fff" text-anchor="middle">Exploratory Data Analysis (EDA)</text>
        </g>
      </g>

      <!-- ROW 2 -->
      <!-- Card 3: Data Visualization -->
      <g transform="translate(0, 74)">
        <rect width="380" height="64" rx="10" fill="#1e293b" fill-opacity="0.8" stroke="#39ff14" stroke-width="1.5"/>
        <text x="14" y="22" class="font-sans" font-size="11.5" font-weight="700" fill="#39ff14">📊 Data Visualization</text>
        <g transform="translate(14, 34)">
          <rect width="70" height="20" rx="10" fill="#11557C"/><text x="49" y="13.5" class="font-sans" font-size="9.5" font-weight="bold" fill="#fff" text-anchor="middle">Matplotlib</text>
          <rect x="76" width="60" height="20" rx="10" fill="#4C72B0"/><text x="106" y="13.5" class="font-sans" font-size="9.5" font-weight="bold" fill="#fff" text-anchor="middle">Seaborn</text>
          <rect x="142" width="65" height="20" rx="10" fill="#F2C811"/><text x="174.5" y="13.5" class="font-sans" font-size="9.5" font-weight="bold" fill="#000" text-anchor="middle">Power BI</text>
        </g>
      </g>
      <!-- Card 4: Machine Learning -->
      <g transform="translate(400, 74)">
        <rect width="380" height="64" rx="10" fill="#1e293b" fill-opacity="0.8" stroke="#ff9900" stroke-width="1.5"/>
        <text x="14" y="22" class="font-sans" font-size="11.5" font-weight="700" fill="#ff9900">🤖 Machine Learning</text>
        <g transform="translate(14, 34)">
          <rect width="75" height="20" rx="10" fill="#F15A24"/><text x="51.5" y="13.5" class="font-sans" font-size="9.5" font-weight="bold" fill="#fff" text-anchor="middle">Scikit-Learn</text>
          <rect x="81" width="70" height="20" rx="10" fill="#334155" stroke="#ff9900"/><text x="116" y="13.5" class="font-sans" font-size="9.5" font-weight="bold" fill="#fff" text-anchor="middle">Regression</text>
          <rect x="157" width="80" height="20" rx="10" fill="#334155" stroke="#ff9900"/><text x="197" y="13.5" class="font-sans" font-size="9.5" font-weight="bold" fill="#fff" text-anchor="middle">Classification</text>
          <rect x="243" width="65" height="20" rx="10" fill="#334155" stroke="#ff9900"/><text x="275.5" y="13.5" class="font-sans" font-size="9.5" font-weight="bold" fill="#fff" text-anchor="middle">Clustering</text>
        </g>
      </g>

      <!-- ROW 3 -->
      <!-- Card 5: Deep Learning -->
      <g transform="translate(0, 148)">
        <rect width="380" height="64" rx="10" fill="#1e293b" fill-opacity="0.8" stroke="#9d4edd" stroke-width="1.5"/>
        <text x="14" y="22" class="font-sans" font-size="11.5" font-weight="700" fill="#9d4edd">🧠 Deep Learning</text>
        <g transform="translate(14, 34)">
          <rect width="75" height="20" rx="10" fill="#FF6F00"/><text x="51.5" y="13.5" class="font-sans" font-size="9.5" font-weight="bold" fill="#fff" text-anchor="middle">TensorFlow</text>
          <rect x="81" width="50" height="20" rx="10" fill="#D00000"/><text x="106" y="13.5" class="font-sans" font-size="9.5" font-weight="bold" fill="#fff" text-anchor="middle">Keras</text>
          <rect x="137" width="85" height="20" rx="10" fill="#334155" stroke="#9d4edd"/><text x="179.5" y="13.5" class="font-sans" font-size="9.5" font-weight="bold" fill="#fff" text-anchor="middle">Neural Networks</text>
          <rect x="228" width="45" height="20" rx="10" fill="#334155" stroke="#9d4edd"/><text x="250.5" y="13.5" class="font-sans" font-size="9.5" font-weight="bold" fill="#fff" text-anchor="middle">CNN</text>
        </g>
      </g>
      <!-- Card 6: Databases -->
      <g transform="translate(400, 148)">
        <rect width="380" height="64" rx="10" fill="#1e293b" fill-opacity="0.8" stroke="#00f0ff" stroke-width="1.5"/>
        <text x="14" y="22" class="font-sans" font-size="11.5" font-weight="700" fill="#00f0ff">💾 Databases</text>
        <g transform="translate(14, 34)">
          <rect width="45" height="20" rx="10" fill="#CC2927"/><text x="36.5" y="13.5" class="font-sans" font-size="9.5" font-weight="bold" fill="#fff" text-anchor="middle">SQL</text>
          <rect x="51" width="55" height="20" rx="10" fill="#00758F"/><text x="78.5" y="13.5" class="font-sans" font-size="9.5" font-weight="bold" fill="#fff" text-anchor="middle">MySQL</text>
          <rect x="112" width="55" height="20" rx="10" fill="#003B57"/><text x="139.5" y="13.5" class="font-sans" font-size="9.5" font-weight="bold" fill="#fff" text-anchor="middle">SQLite</text>
          <rect x="173" width="75" height="20" rx="10" fill="#336791"/><text x="210.5" y="13.5" class="font-sans" font-size="9.5" font-weight="bold" fill="#fff" text-anchor="middle">PostgreSQL</text>
        </g>
      </g>

      <!-- ROW 4 -->
      <!-- Card 7: Tools -->
      <g transform="translate(0, 222)">
        <rect width="380" height="64" rx="10" fill="#1e293b" fill-opacity="0.8" stroke="#ff007f" stroke-width="1.5"/>
        <text x="14" y="22" class="font-sans" font-size="11.5" font-weight="700" fill="#ff007f">🛠️ Tools</text>
        <g transform="translate(14, 34)">
          <rect width="90" height="20" rx="10" fill="#217346"/><text x="59" y="13.5" class="font-sans" font-size="9.5" font-weight="bold" fill="#fff" text-anchor="middle">Microsoft Excel</text>
          <rect x="96" width="95" height="20" rx="10" fill="#F37626"/><text x="143.5" y="13.5" class="font-sans" font-size="9.5" font-weight="bold" fill="#fff" text-anchor="middle">Jupyter Notebook</text>
          <rect x="197" width="65" height="20" rx="10" fill="#43B02A"/><text x="229.5" y="13.5" class="font-sans" font-size="9.5" font-weight="bold" fill="#fff" text-anchor="middle">Anaconda</text>
          <rect x="268" width="55" height="20" rx="10" fill="#007ACC"/><text x="295.5" y="13.5" class="font-sans" font-size="9.5" font-weight="bold" fill="#fff" text-anchor="middle">VS Code</text>
        </g>
      </g>
      <!-- Card 8: Version Control -->
      <g transform="translate(400, 222)">
        <rect width="380" height="64" rx="10" fill="#1e293b" fill-opacity="0.8" stroke="#39ff14" stroke-width="1.5"/>
        <text x="14" y="22" class="font-sans" font-size="11.5" font-weight="700" fill="#39ff14">🔀 Version Control</text>
        <g transform="translate(14, 34)">
          <rect width="45" height="20" rx="10" fill="#F05032"/><text x="36.5" y="13.5" class="font-sans" font-size="9.5" font-weight="bold" fill="#fff" text-anchor="middle">Git</text>
          <rect x="51" width="55" height="20" rx="10" fill="#181717" stroke="#334155"/><text x="78.5" y="13.5" class="font-sans" font-size="9.5" font-weight="bold" fill="#fff" text-anchor="middle">GitHub</text>
        </g>
      </g>
    </g>
  </g>
</svg>